ffmpeg started on 2016-11-27 at 23:58:53
Report written to "Output/NVENCh264/results/ffmpeg/crowd_run_2160p50llhp4500k.log"
Command line:
Tools/ffmpeg/ffmpeg -benchmark -y -i Input/y4m/crowd_run_2160p50.y4m -c:v h264_nvenc -preset llhp -b:v 4500k -an Output/NVENCh264/encoded/crowd_run_2160p50llhp4500k.mkv
ffmpeg version N-82227-gdb23fde Copyright (c) 2000-2016 the FFmpeg developers
  built with gcc 5.4.0 (Ubuntu 5.4.0-6ubuntu1~16.04.2) 20160609
  configuration: --prefix=/home/jaroslav/ffmpeg_build --pkg-config-flags=--static --extra-cflags=-I/home/jaroslav/ffmpeg_build/include --extra-ldflags=-L/home/jaroslav/ffmpeg_build/lib --bindir=/home/jaroslav/bin --enable-gpl --enable-libass --enable-libfdk-aac --enable-libfreetype --enable-libmp3lame --enable-libopus --enable-libtheora --enable-libvorbis --enable-libvpx --enable-libx264 --enable-libx265 --enable-nvenc --enable-libmfx --enable-libxvid --enable-libgsm --enable-libopencore-amrnb --enable-version3 --enable-nonfree
  libavutil      55. 35.100 / 55. 35.100
  libavcodec     57. 66.101 / 57. 66.101
  libavformat    57. 57.100 / 57. 57.100
  libavdevice    57.  2.100 / 57.  2.100
  libavfilter     6. 66.100 /  6. 66.100
  libswscale      4.  3.100 /  4.  3.100
  libswresample   2.  4.100 /  2.  4.100
  libpostproc    54.  2.100 / 54.  2.100
Input #0, yuv4mpegpipe, from 'Input/y4m/crowd_run_2160p50.y4m':
  Duration: 00:00:10.00, start: 0.000000, bitrate: 4976642 kb/s
    Stream #0:0: Video: rawvideo (I420 / 0x30323449), yuv420p(progressive), 3840x2160, SAR 1:1 DAR 16:9, 50 fps, 50 tbr, 50 tbn, 50 tbc
[h264_nvenc @ 0x37661c0] The variable bitrate rate-control requires the 'qmin' and/or 'qmax' option set.
Output #0, matroska, to 'Output/NVENCh264/encoded/crowd_run_2160p50llhp4500k.mkv':
  Metadata:
    encoder         : Lavf57.57.100
    Stream #0:0: Video: h264 (h264_nvenc) (Main) (H264 / 0x34363248), yuv420p, 3840x2160 [SAR 1:1 DAR 16:9], q=-1--1, 4500 kb/s, 50 fps, 1k tbn, 50 tbc
    Metadata:
      encoder         : Lavc57.66.101 h264_nvenc
    Side data:
      cpb: bitrate max/min/avg: 0/0/4500000 buffer size: 9000000 vbv_delay: -1
Stream mapping:
  Stream #0:0 -> #0:0 (rawvideo (native) -> h264 (h264_nvenc))
Press [q] to stop, [?] for help
frame=   12 fps=0.0 q=0.0 size=       0kB time=00:00:00.00 bitrate=N/A speed=   0x    frame=   27 fps= 26 q=0.0 size=       0kB time=00:00:00.00 bitrate=N/A speed=   0x    frame=   43 fps= 28 q=49.0 size=       1kB time=00:00:00.24 bitrate=  24.8kbits/s speed=0.156x    frame=   61 fps= 30 q=49.0 size=       1kB time=00:00:00.60 bitrate=   9.9kbits/s speed=0.291x    frame=   79 fps= 31 q=49.0 size=       1kB time=00:00:00.96 bitrate=   6.2kbits/s speed=0.371x    frame=   97 fps= 31 q=49.0 size=       1kB time=00:00:01.32 bitrate=   4.5kbits/s speed=0.426x    frame=  115 fps= 32 q=49.0 size=       1kB time=00:00:01.68 bitrate=   3.6kbits/s speed=0.463x    frame=  128 fps= 21 q=49.0 size=       1kB time=00:00:01.94 bitrate=   3.1kbits/s speed=0.32x    frame=  129 fps= 13 q=49.0 size=       1kB time=00:00:01.96 bitrate=   3.0kbits/s speed=0.197x    frame=  130 fps= 12 q=49.0 size=       1kB time=00:00:01.98 bitrate=   3.0kbits/s speed=0.18x    frame=  147 fps= 13 q=49.0 size=       1kB time=00:00:02.32 bitrate=   2.6kbits/s speed=0.201x    frame=  165 fps= 14 q=49.0 size=       1kB time=00:00:02.68 bitrate=   2.2kbits/s speed=0.222x    frame=  182 fps= 14 q=49.0 size=       1kB time=00:00:03.02 bitrate=   2.0kbits/s speed=0.24x    frame=  199 fps= 15 q=49.0 size=       1kB time=00:00:03.36 bitrate=   1.8kbits/s speed=0.257x    frame=  216 fps= 16 q=49.0 size=       1kB time=00:00:03.70 bitrate=   1.6kbits/s speed=0.272x    frame=  233 fps= 17 q=49.0 size=       1kB time=00:00:04.04 bitrate=   1.5kbits/s speed=0.287x    frame=  251 fps= 17 q=49.0 size=       1kB time=00:00:04.40 bitrate=   1.4kbits/s speed=0.301x    frame=  269 fps= 18 q=49.0 size=       1kB time=00:00:04.76 bitrate=   1.3kbits/s speed=0.314x    frame=  285 fps= 18 q=49.0 size=    3225kB time=00:00:05.08 bitrate=5199.3kbits/s speed=0.323x    frame=  303 fps= 19 q=49.0 size=    3225kB time=00:00:05.44 bitrate=4855.3kbits/s speed=0.335x    frame=  317 fps= 19 q=49.0 size=    3225kB time=00:00:05.72 bitrate=4617.7kbits/s speed=0.339x    frame=  335 fps= 19 q=49.0 size=    3225kB time=00:00:06.08 bitrate=4344.3kbits/s speed=0.35x    frame=  353 fps= 20 q=49.0 size=    3225kB time=00:00:06.44 bitrate=4101.5kbits/s speed=0.36x    frame=  371 fps= 20 q=49.0 size=    3225kB time=00:00:06.80 bitrate=3884.4kbits/s speed=0.369x    frame=  389 fps= 21 q=49.0 size=    3225kB time=00:00:07.16 bitrate=3689.1kbits/s speed=0.378x    frame=  407 fps= 21 q=49.0 size=    3225kB time=00:00:07.52 bitrate=3512.5kbits/s speed=0.387x    frame=  425 fps= 21 q=49.0 size=    3225kB time=00:00:07.88 bitrate=3352.1kbits/s speed=0.395x    frame=  443 fps= 22 q=49.0 size=    3225kB time=00:00:08.24 bitrate=3205.6kbits/s speed=0.402x    frame=  461 fps= 22 q=49.0 size=    3225kB time=00:00:08.60 bitrate=3071.5kbits/s speed=0.41x    frame=  479 fps= 22 q=49.0 size=    3225kB time=00:00:08.96 bitrate=2948.1kbits/s speed=0.416x    frame=  497 fps= 23 q=49.0 size=    3225kB time=00:00:09.32 bitrate=2834.2kbits/s speed=0.423x    frame=  500 fps= 23 q=49.0 Lsize=    6598kB time=00:00:09.98 bitrate=5415.6kbits/s speed=0.45x    
video:6594kB audio:0kB subtitle:0kB other streams:0kB global headers:0kB muxing overhead: 0.064497%
bench: utime=1.200s
bench: maxrss=1408768kB
